<!--Attribution to: https://www.flaticon.com/authors/catalin-fertu-->
<svg xmlns="http://www.w3.org/2000/svg" viewBox="0 0 699 699" fill="#333">
	<path d="M503 415h-306c-12 0-22 10-22 22 0 12 10 22 22 22h306c12 0 22-10 22-22C525 425 515 415 503 415zM503 525h-306c-12 0-22 10-22 22 0 12 10 22 22 22h306c12 0 22-10 22-22C525 534 515 525 503 525zM568 87h-66V44h-59C425 18 390 0 350 0c-40 0-75 18-94 44h-59v44h-66c-48 0-87 39-87 87V612c0 48 39 87 87 87h437c48 0 87-39 87-87V175C656 127 617 87 568 87zM240 87h49c0-24 27-44 61-44 34 0 61 20 61 44H459v87H240V87zM612 612c0 24-20 44-44 44H131c-24 0-44-20-44-44V175c0-24 20-44 44-44h66v87h306v-87h66c24 0 44 20 44 44V612zM503 306h-306c-12 0-22 10-22 22 0 12 10 22 22 22h306c12 0 22-10 22-22C525 316 515 306 503 306z" />
</svg>